<svg width="117" height="61" viewBox="0 0 117 61" fill="none" xmlns="http://www.w3.org/2000/svg">
<path d="M116.925 0.835693L0.781738 0.835693L0.781738 60.8357L116.925 60.8357V0.835693Z" fill="black"/>
<path d="M39.815 42.7839V37.8649H26.4395V34.0542L39.5417 19.6766H44.4911V34.0542H48.1652L47.6338 37.8649H44.4911V42.7839H39.815ZM39.815 24.8538L31.3888 34.0542H39.815V24.8538Z" fill="white"/>
<path d="M58.9747 43.3912C55.5132 43.3912 52.9322 42.3892 51.2318 40.37C49.5314 38.3508 48.666 35.3143 48.666 31.2607C48.666 27.207 49.5466 24.2161 51.2925 22.1514C53.0385 20.0866 55.6346 19.0542 59.0658 19.0542C62.497 19.0542 65.0628 20.0562 66.7784 22.0755C68.4788 24.0947 69.329 27.1311 69.329 31.1848C69.329 35.2384 68.4484 38.2293 66.7024 40.2941C64.9565 42.3589 62.3755 43.3912 58.9595 43.3912H58.9747ZM59.0203 39.201C60.7966 39.201 62.1022 38.5633 62.9221 37.288C63.7419 36.0127 64.1367 33.9783 64.1367 31.1696C64.1367 28.3609 63.7267 26.3568 62.9221 25.0967C62.1022 23.8366 60.8118 23.2141 59.0203 23.2141C57.2288 23.2141 55.9383 23.8518 55.1184 25.1271C54.2986 26.4024 53.9039 28.4368 53.9039 31.2455C53.9039 34.0542 54.3138 36.0582 55.1184 37.3184C55.9383 38.5785 57.2288 39.201 59.0203 39.201Z" fill="white"/>
<path d="M83.2969 42.7837V37.8647H69.9214V34.054L83.0236 19.6765H87.973V34.054H91.6471L91.1157 37.8647H87.973V42.7837H83.2969ZM83.2969 24.8536L74.8708 34.054H83.2969V24.8536Z" fill="white"/>
<path d="M20.9892 45.7899C17.5125 41.5541 15.7817 36.544 15.7817 30.7899C15.7817 25.0359 17.5125 20.0257 20.9892 15.7899H26.0601C24.4052 18.2191 23.1906 20.6179 22.4164 22.9863C21.6724 25.3699 21.2929 27.966 21.2929 30.7899C21.2929 33.6138 21.6724 36.21 22.4164 38.5936C23.1906 40.9772 24.4052 43.3759 26.0601 45.7899H20.9892Z" fill="white"/>
<path d="M91.769 45.7901C93.4239 43.361 94.6385 40.9622 95.4128 38.5937C96.1567 36.2101 96.5362 33.614 96.5362 30.7901C96.5362 27.9662 96.1567 25.3701 95.4128 22.9865C94.6385 20.6029 93.4239 18.2041 91.769 15.7901H96.8399C100.317 20.0259 102.047 25.0361 102.047 30.7901C102.047 36.5441 100.317 41.5543 96.8399 45.7901H91.769Z" fill="white"/>
</svg>
