<svg width="130" height="60" viewBox="0 0 130 60" fill="none" xmlns="http://www.w3.org/2000/svg">
<g clip-path="url(#clip0_97_54)">
<path d="M130 0H0V60H130V0Z" fill="black"/>
<path d="M47.5261 41.9509L45.1498 36.5343H33.1031L30.7607 41.9509H25.2393L36.1825 18.0724H42.2398L53.1831 41.9509H47.5282H47.5261ZM39.1265 22.7207L34.9097 32.286H43.3432L39.1265 22.7207Z" fill="white"/>
<path d="M54.8882 41.9509V18.0724H65.5964C70.169 18.0724 73.6551 19.0926 76.0547 21.1331C78.4522 23.1736 79.6509 26.1328 79.6509 30.0127C79.6509 33.8926 78.3844 36.7692 75.8535 38.8415C73.3204 40.9158 69.7242 41.9509 65.0605 41.9509H54.8882ZM65.2956 37.5037C68.2184 37.5037 70.421 36.8687 71.9057 35.5966C73.3882 34.3265 74.1316 32.4533 74.1316 29.9788C74.1316 25.0067 71.3423 22.5217 65.7658 22.5217H60.2105V37.5037H65.2978H65.2956Z" fill="white"/>
<path d="M98.9578 24.795C98.4897 23.6584 97.7866 22.8392 96.8505 22.3375C95.9143 21.8359 94.6076 21.5861 92.9344 21.5861C91.0389 21.5861 89.5881 21.8211 88.5842 22.2889C87.5803 22.7567 87.0784 23.4382 87.0784 24.3294C87.0784 25.2205 87.3855 25.8005 87.9975 26.2026C88.6117 26.6048 89.7321 26.9266 91.3608 27.1721L96.2807 27.9405C99.2035 28.4082 101.345 29.2274 102.707 30.3979C104.066 31.5685 104.748 33.1793 104.748 35.2304C104.748 37.5503 103.761 39.3495 101.787 40.6322C99.8134 41.9149 96.9966 42.5542 93.3389 42.5542C90.6831 42.5542 88.4804 42.2409 86.7289 41.6186C84.9774 40.9941 83.6389 40.048 82.7133 38.7758C81.7878 37.5058 81.235 35.8887 81.0571 33.9265H86.4451C86.6675 35.4865 87.3262 36.6295 88.419 37.3555C89.5119 38.0795 91.1511 38.4414 93.3389 38.4414C95.3023 38.4414 96.7806 38.1789 97.7718 37.6561C98.7651 37.1333 99.2606 36.3586 99.2606 35.332C99.2606 34.5065 98.9303 33.8609 98.2737 33.3931C97.615 32.9253 96.573 32.5908 95.1455 32.3898L91.13 31.8204C87.8726 31.3737 85.492 30.5673 83.9862 29.3946C82.4804 28.222 81.7264 26.5794 81.7264 24.4627C81.7264 23.0361 82.1733 21.7978 83.0649 20.75C83.9566 19.7023 85.257 18.8937 86.964 18.3243C88.671 17.7549 90.7064 17.4713 93.07 17.4713C96.3273 17.4713 98.8476 18.0131 100.633 19.0926C102.418 20.1743 103.59 21.874 104.147 24.1939L98.9599 24.795H98.9578Z" fill="white"/>
<path d="M20.222 44.963C16.7465 40.7211 15.0098 35.7214 15.0098 29.9619C15.0098 24.2024 16.7465 19.2048 20.222 14.9608H25.2944C23.6382 17.3845 22.4246 19.7869 21.6558 22.164C20.9103 24.541 20.5354 27.1403 20.5354 29.9619C20.5354 32.7835 20.9082 35.3807 21.6558 37.7598C22.4246 40.1369 23.6382 42.5393 25.2944 44.963H20.222Z" fill="white"/>
<path d="M104.81 44.963C106.466 42.5393 107.679 40.1369 108.448 37.7598C109.194 35.3828 109.569 32.7835 109.569 29.9619C109.569 27.1403 109.196 24.5432 108.448 22.164C107.679 19.7869 106.466 17.3845 104.81 14.9608H109.882C113.357 19.2027 115.094 24.2024 115.094 29.9619C115.094 35.7193 113.357 40.719 109.882 44.963H104.81Z" fill="white"/>
</g>
<defs>
<clipPath id="clip0_97_54">
<rect width="130" height="60" fill="white"/>
</clipPath>
</defs>
</svg>
