<svg width="135" height="61" viewBox="0 0 135 61" fill="none" xmlns="http://www.w3.org/2000/svg">
<path d="M134.121 0.702332L0.274902 0.702332L0.274902 60.7023L134.121 60.7023V0.702332Z" fill="black"/>
<path d="M48.4335 42.6705L46.0622 37.2594H34.0144L31.6749 42.6705H26.1523L37.086 18.7978H43.1338L54.0675 42.6705H48.4176H48.4335ZM40.0303 23.445L35.8128 33.01H44.2478L40.0303 23.445Z" fill="white"/>
<path d="M74.1845 42.6705V32.6758H61.1341V42.6705H55.7866V18.7978H61.1341V28.0286H74.1845V18.7978H79.532V42.6705H74.1845Z" fill="white"/>
<path d="M103.517 42.6705L101.145 37.2594H89.0974L86.7579 42.6705H81.2354L92.169 18.7978H98.2168L109.15 42.6705H103.501H103.517ZM95.1133 23.445L90.8958 33.01H99.3308L95.1133 23.445Z" fill="white"/>
<path d="M20.4874 45.6625C17.018 41.4132 15.2832 36.4158 15.2832 30.6545C15.2832 24.8933 17.018 19.8959 20.4874 15.6466H25.5644C23.9092 18.0657 22.6996 20.4689 21.9198 22.8561C21.1718 25.2275 20.8057 27.8376 20.8057 30.6545C20.8057 33.4715 21.1718 36.0816 21.9198 38.4529C22.6837 40.8243 23.9092 43.2275 25.5644 45.6625H20.4874Z" fill="white"/>
<path d="M109.055 45.6626C110.71 43.2435 111.919 40.8404 112.699 38.4531C113.447 36.0817 113.813 33.4717 113.813 30.6547C113.813 27.8377 113.447 25.2276 112.699 22.8563C111.935 20.4849 110.71 18.0817 109.055 15.6467H114.132C117.601 19.8961 119.336 24.8934 119.336 30.6547C119.336 36.416 117.601 41.4133 114.132 45.6626H109.055Z" fill="white"/>
</svg>
