<svg width="127" height="60" viewBox="0 0 127 60" fill="none" xmlns="http://www.w3.org/2000/svg">
<g clip-path="url(#clip0_97_45)">
<path d="M127 0H0V60H127V0Z" fill="black"/>
<path d="M25.5151 41.9514V18.0707H37.1635C43.7309 18.0707 47.0146 20.1252 47.0146 24.2342C47.0146 26.7084 45.7056 28.4094 43.1097 29.3152C46.3046 30.3535 47.9243 32.2533 47.9243 34.9926C47.9243 37.268 47.059 38.9912 45.3284 40.1841C43.5978 41.3549 41.0462 41.9514 37.7181 41.9514H25.5151ZM37.2078 27.6141C38.8053 27.6141 39.9591 27.3711 40.6912 26.9072C41.4234 26.4433 41.8006 25.7143 41.8006 24.7423C41.8006 23.7703 41.4234 23.1296 40.669 22.7099C39.9147 22.2901 38.6722 22.0913 36.9416 22.0913H30.596V27.6141H37.2078ZM37.341 37.9308C39.2047 37.9308 40.5581 37.6878 41.4012 37.1797C42.2443 36.6716 42.6881 35.8763 42.6881 34.7496C42.6881 33.623 42.2665 32.8056 41.4012 32.2754C40.5581 31.7452 39.2047 31.4801 37.3631 31.4801H30.5738V37.9308H37.3188H37.341Z" fill="white"/>
<path d="M77.2113 30.0221C77.2113 32.5405 76.6566 34.7496 75.5473 36.6274C74.4379 38.5052 72.8404 39.9632 70.7326 41.0015C68.647 42.0398 66.1399 42.5479 63.2555 42.5479C60.3712 42.5479 58.0637 42.0619 55.9781 41.0678C53.9147 40.0736 52.295 38.6377 51.1412 36.7599C49.9875 34.8822 49.4106 32.6289 49.4106 30.0221C49.4106 27.4153 49.9653 25.2946 51.0747 23.4168C52.1841 21.539 53.7815 20.081 55.8893 19.0427C57.9749 18.0044 60.4821 17.4963 63.3664 17.4963C66.2508 17.4963 68.5583 17.9823 70.6439 18.9764C72.7073 19.9705 74.327 21.4065 75.4807 23.2842C76.6344 25.162 77.2113 27.4153 77.2113 30.0221ZM71.6423 30.0221C71.6423 27.4374 70.9101 25.4271 69.4679 23.9912C68.0036 22.5552 65.9624 21.8483 63.3221 21.8483C60.6818 21.8483 58.6627 22.5773 57.1984 24.0133C55.734 25.4492 55.024 27.4595 55.024 30.0221C55.024 32.5847 55.7562 34.6171 57.1984 36.053C58.6627 37.489 60.704 38.1959 63.3443 38.1959C65.9845 38.1959 68.0036 37.4669 69.4679 36.0309C70.9323 34.595 71.6423 32.5847 71.6423 30.0221Z" fill="white"/>
<path d="M96.0708 41.9514L88.7046 32.8277L81.3828 41.9514H75.3257L85.3321 29.5803L76.0579 18.0707H82.5144L88.7934 26.134L95.3164 18.0707H101.374L92.1658 29.3373L102.505 41.9514H96.0486H96.0708Z" fill="white"/>
<path d="M20.3011 44.9558C16.8177 40.7143 15.0649 35.7216 15.0649 29.9558C15.0649 24.19 16.8177 19.1973 20.3011 14.9558H25.4042C23.7402 17.3859 22.5199 19.7717 21.7433 22.1576C20.9889 24.5434 20.6118 27.1281 20.6118 29.9558C20.6118 32.7835 20.9889 35.3682 21.7433 37.754C22.5199 40.1399 23.7402 42.5258 25.4042 44.9558H20.3011Z" fill="white"/>
<path d="M101.817 44.9558C103.481 42.5258 104.702 40.1399 105.478 37.754C106.233 35.3682 106.61 32.7835 106.61 29.9558C106.61 27.1281 106.233 24.5434 105.478 22.1576C104.702 19.7717 103.481 17.3859 101.817 14.9558H106.92C110.404 19.1973 112.157 24.19 112.157 29.9558C112.157 35.7216 110.404 40.7143 106.92 44.9558H101.817Z" fill="white"/>
</g>
<defs>
<clipPath id="clip0_97_45">
<rect width="127" height="60" fill="white"/>
</clipPath>
</defs>
</svg>
