<svg width="127" height="61" viewBox="0 0 127 61" fill="none" xmlns="http://www.w3.org/2000/svg">
<path d="M126.377 0.85199L0.472656 0.85199L0.472656 60.852L126.377 60.852V0.85199Z" fill="black"/>
<path d="M25.8816 42.8058L25.8816 18.9271H37.4889C44.0144 18.9271 47.2916 20.9771 47.2916 25.0772C47.2916 27.5459 45.9923 29.2495 43.4081 30.159C46.5987 31.2129 48.1867 33.1042 48.1867 35.8472C48.1867 38.1282 47.3205 39.8462 45.5881 41.03C43.8556 42.2139 41.3292 42.8058 38.0087 42.8058H25.8672H25.8816ZM37.5178 28.4555C39.1059 28.4555 40.2608 28.2245 40.9971 27.748C41.7334 27.2716 42.0943 26.5498 42.0943 25.5681C42.0943 24.6297 41.719 23.9511 40.9538 23.5469C40.1887 23.1282 38.9615 22.9261 37.2435 22.9261H30.9201L30.9201 28.441H37.5034L37.5178 28.4555ZM37.6477 38.7923C39.4957 38.7923 40.8527 38.5469 41.6901 38.0416C42.5419 37.5363 42.9605 36.7278 42.9605 35.6162C42.9605 34.5045 42.5419 33.6816 41.6901 33.1475C40.8383 32.6133 39.5101 32.339 37.6766 32.339H30.9201V38.7923H37.6477Z" fill="white"/>
<path d="M68.9473 18.9271H74.3034V32.7722C74.3034 36.3381 73.3361 39.0089 71.416 40.7702C69.4815 42.5315 66.5508 43.4122 62.6095 43.4122C58.6682 43.4122 55.723 42.5315 53.8029 40.7702C51.8684 39.0089 50.9155 36.3381 50.9155 32.7722V18.9271H56.2716V33.0753C56.2716 35.1254 56.7914 36.6268 57.8164 37.5941C58.8414 38.547 60.4439 39.0378 62.6383 39.0378C64.8183 39.0378 66.4353 38.5614 67.4603 37.5941C68.4853 36.6413 69.005 35.1254 69.005 33.0753V18.9271H68.9473Z" fill="white"/>
<path d="M85.8388 42.8058V33.2774L75.7329 18.9271H81.7242L88.5818 28.9607L95.5115 18.9271H101.301L91.1949 33.2774V42.8058H85.8388Z" fill="white"/>
<path d="M20.6844 45.8086C17.2051 41.5641 15.4727 36.5689 15.4727 30.8086C15.4727 25.0482 17.2051 20.0531 20.6844 15.8086H25.7518C24.0915 18.234 22.8788 20.6305 22.1137 23.0126C21.3629 25.3947 20.9876 27.9934 20.9876 30.8086C20.9876 33.6238 21.3629 36.2225 22.1137 38.6046C22.8788 40.9867 24.0915 43.3832 25.7518 45.8086H20.6844Z" fill="white"/>
<path d="M101.2 45.8085C102.86 43.3831 104.073 40.9866 104.838 38.6045C105.589 36.2224 105.964 33.6237 105.964 30.8085C105.964 27.9933 105.589 25.3947 104.838 23.0126C104.073 20.6305 102.86 18.2339 101.2 15.8085H106.267C109.746 20.053 111.479 25.0482 111.479 30.8085C111.479 36.5689 109.746 41.5641 106.267 45.8085H101.2Z" fill="white"/>
</svg>
