<svg width="129" height="60" viewBox="0 0 129 60" fill="none" xmlns="http://www.w3.org/2000/svg">
<g clip-path="url(#clip0_57_60)">
<path d="M129 0H0V60H129V0Z" fill="black"/>
<path d="M51.1308 33.6915C50.7515 36.5237 49.4738 38.7081 47.2977 40.2469C45.1216 41.7858 42.2484 42.5541 38.6781 42.5541C35.9998 42.5541 33.6563 42.0631 31.6476 41.083C29.6389 40.103 28.0879 38.6636 26.9945 36.7692C25.9012 34.8747 25.3545 32.6226 25.3545 30.0127C25.3545 27.4028 25.8842 25.3581 26.9437 23.4742C28.0031 21.5903 29.5372 20.1192 31.5459 19.0588C33.5546 18.0004 35.9193 17.4691 38.6442 17.4691C45.272 17.4691 49.3022 20.1997 50.7303 25.6629L45.4076 26.2979C44.8504 24.7146 44.041 23.5779 42.9794 22.8858C41.92 22.1957 40.4728 21.8486 38.6442 21.8486C36.2562 21.8486 34.3704 22.5725 32.9867 24.0224C31.6031 25.4724 30.9102 27.4663 30.9102 30.0085C30.9102 32.5506 31.601 34.5742 32.9867 36.0114C34.3704 37.4487 36.2901 38.1683 38.7459 38.1683C40.7313 38.1683 42.295 37.8 43.4328 37.0655C44.5707 36.3289 45.3292 35.205 45.7085 33.6873H51.1329L51.1308 33.6915Z" fill="white"/>
<path d="M53.8091 41.9509V18.0724H73.8283V22.454H59.1656V27.4705H73.127V31.8521H59.1656V37.5714H74.5657L73.8961 41.953H53.8091V41.9509Z" fill="white"/>
<path d="M103.891 30.0127C103.891 32.5315 103.338 34.735 102.234 36.6189C101.13 38.5027 99.5324 39.9633 97.4474 41.0005C95.3603 42.0376 92.877 42.5562 89.9995 42.5562C87.1221 42.5562 84.8167 42.0609 82.7508 41.0682C80.687 40.0755 79.0788 38.6382 77.9303 36.7544C76.7798 34.8705 76.2056 32.6247 76.2056 30.0148C76.2056 27.4049 76.7586 25.2945 77.8625 23.4107C78.9665 21.5268 80.562 20.0663 82.6491 19.0291C84.7362 17.9919 87.2195 17.4733 90.097 17.4733C92.9744 17.4733 95.2798 17.9708 97.3457 18.9614C99.4095 19.9541 101.018 21.3913 102.166 23.2752C103.315 25.1591 103.891 27.4049 103.891 30.0148V30.0127ZM98.3331 30.0127C98.3331 27.4261 97.6085 25.4194 96.157 23.9928C94.7056 22.5661 92.663 21.8528 90.0313 21.8528C87.3996 21.8528 85.3888 22.5725 83.9374 24.0097C82.486 25.4469 81.7613 27.4493 81.7613 30.0127C81.7613 32.576 82.486 34.6059 83.9374 36.0326C85.3888 37.4592 87.4293 38.1725 90.0631 38.1725C92.6969 38.1725 94.7056 37.4529 96.157 36.0156C97.6063 34.5784 98.3331 32.576 98.3331 30.0127Z" fill="white"/>
<path d="M20.2312 44.9629C16.7541 40.7211 15.0166 35.7214 15.0166 29.9619C15.0166 24.2023 16.7541 19.2048 20.2312 14.9608H25.3059C23.6489 17.3844 22.4348 19.7869 21.6657 22.1639C20.9198 24.541 20.5448 27.1403 20.5448 29.9619C20.5448 32.7834 20.9177 35.3806 21.6657 37.7598C22.4348 40.1369 23.6489 42.5393 25.3059 44.9629H20.2312Z" fill="white"/>
<path d="M103.798 44.9629C105.455 42.5393 106.669 40.1369 107.438 37.7598C108.184 35.3827 108.559 32.7834 108.559 29.9619C108.559 27.1403 108.186 24.5431 107.438 22.1639C106.669 19.7869 105.455 17.3844 103.798 14.9608H108.873C112.35 19.2027 114.087 24.2023 114.087 29.9619C114.087 35.7193 112.35 40.7189 108.873 44.9629H103.798Z" fill="white"/>
</g>
<defs>
<clipPath id="clip0_57_60">
<rect width="129" height="60" fill="white"/>
</clipPath>
</defs>
</svg>
