<svg width="129" height="60" viewBox="0 0 129 60" fill="none" xmlns="http://www.w3.org/2000/svg">
<g clip-path="url(#clip0_66_2)">
<path d="M129 0L0 0L0 60L129 60V0Z" fill="black"/>
<path d="M25.3838 41.9599V18.0864H45.3699V22.4691H30.735V27.4846H44.676V31.8673H30.735V37.5926H46.1101L45.447 41.9753H25.3992L25.3838 41.9599Z" fill="white"/>
<path d="M68.5635 33.0555H61.9786V28.9043H73.5138V39.2747C72.0179 40.3241 70.2753 41.1265 68.2705 41.6975C66.2657 42.2685 64.153 42.5463 61.9477 42.5463C57.491 42.5463 54.0057 41.4506 51.5075 39.2592C48.9938 37.0679 47.7446 34.0123 47.7446 30.108C47.7446 27.5617 48.2844 25.3549 49.3639 23.4568C50.4434 21.5586 52.0164 20.0926 54.0828 19.0432C56.1493 17.9938 58.5705 17.4691 61.3926 17.4691C64.4614 17.4691 67.006 18.1018 69.0107 19.3827C71.0155 20.6636 72.3572 22.4691 73.0511 24.8302L67.6999 25.4629C67.2373 24.2129 66.4662 23.287 65.4176 22.7006C64.3535 22.1142 62.9656 21.821 61.2538 21.821C58.7092 21.821 56.7507 22.5308 55.3474 23.9506C53.9595 25.3704 53.2655 27.392 53.2655 30.0154C53.2655 32.6389 54.0057 34.7531 55.4708 36.142C56.9358 37.5308 59.0948 38.2099 61.9477 38.2099C64.6465 38.2099 66.8517 37.7932 68.5635 36.9444V33.071V33.0555Z" fill="white"/>
<path d="M103.293 30.0154C103.293 32.5308 102.738 34.7376 101.643 36.6203C100.532 38.5031 98.944 39.9691 96.8621 41.0031C94.7802 42.037 92.2974 42.5617 89.429 42.5617C86.5606 42.5617 84.2474 42.0679 82.1964 41.0802C80.1299 40.0926 78.5261 38.6574 77.3849 36.7592C76.2437 34.8765 75.6577 32.6234 75.6577 30.0154C75.6577 27.4074 76.2129 25.2932 77.3078 23.4105C78.4181 21.5278 80.0065 20.0617 82.0884 19.0278C84.1703 17.9938 86.6532 17.4691 89.5215 17.4691C92.3899 17.4691 94.7031 17.9629 96.7542 18.9506C98.8207 19.9383 100.424 21.3734 101.566 23.2716C102.707 25.1543 103.293 27.4074 103.293 30.0154ZM97.7412 30.0154C97.7412 27.4228 97.0164 25.4166 95.5667 23.9969C94.1171 22.5771 92.0815 21.8518 89.4444 21.8518C86.8074 21.8518 84.8026 22.5771 83.3684 24.0123C81.9188 25.4475 81.194 27.4537 81.194 30.0154C81.194 32.5771 81.9188 34.6142 83.3684 36.0339C84.818 37.4537 86.8536 38.179 89.4907 38.179C92.1278 38.179 94.1171 37.4537 95.5667 36.0185C97.0164 34.5833 97.7412 32.5771 97.7412 30.0154Z" fill="white"/>
<path d="M20.2022 44.9691C16.7324 40.7253 14.9897 35.7253 14.9897 29.9691C14.9897 24.2129 16.7324 19.2129 20.2022 14.9691H25.2758C23.6257 17.392 22.4074 19.7994 21.6364 22.1759C20.8961 24.5524 20.5106 27.1605 20.5106 29.9691C20.5106 32.7778 20.8807 35.3858 21.6364 37.7623C22.4074 40.1389 23.6103 42.5463 25.2758 44.9691H20.2022Z" fill="white"/>
<path d="M103.616 44.9691C105.266 42.5463 106.485 40.1389 107.256 37.7623C107.996 35.3858 108.381 32.7778 108.381 29.9691C108.381 27.1605 108.011 24.5524 107.256 22.1759C106.485 19.7994 105.282 17.392 103.616 14.9691H108.69C112.16 19.2129 113.902 24.2129 113.902 29.9691C113.902 35.7253 112.16 40.7253 108.69 44.9691H103.616Z" fill="white"/>
</g>
<defs>
<clipPath id="clip0_66_2">
<rect width="129" height="60" fill="white"/>
</clipPath>
</defs>
</svg>
