<svg width="124" height="61" viewBox="0 0 124 61" fill="none" xmlns="http://www.w3.org/2000/svg">
<path d="M123.796 0.922852L0.796387 0.922852L0.796387 60.9229L123.796 60.9229V0.922852Z" fill="black"/>
<path d="M31.5534 33.2654V42.8619H26.2065V18.9838L45.2602 18.9838V23.3728L31.5534 23.3728V28.8938H44.5636V33.2828H31.5534V33.2654Z" fill="white"/>
<path d="M72.2046 34.6065C71.8214 37.4454 70.55 39.6224 68.3729 41.1551C66.1958 42.6877 63.3221 43.4541 59.7691 43.4541C57.087 43.4541 54.7532 42.9664 52.7503 41.9911C50.7474 41.0158 49.1973 39.5702 48.1 37.6718C47.0028 35.7734 46.4629 33.5266 46.4629 30.9142C46.4629 28.3017 46.9854 26.2639 48.0478 24.383C49.1102 22.502 50.6429 21.0216 52.6458 19.9766C54.6487 18.9142 57.0173 18.3917 59.7343 18.3917C66.3526 18.3917 70.3758 21.1261 71.804 26.5774L66.4919 27.2044C65.9346 25.6195 65.1334 24.4875 64.071 23.7908C63.0086 23.0941 61.563 22.7458 59.7343 22.7458C57.3482 22.7458 55.4672 23.4773 54.0913 24.9229C52.7154 26.3684 52.0188 28.3713 52.0188 30.9142C52.0188 33.457 52.7154 35.4773 54.0913 36.9229C55.4672 38.3684 57.3831 39.0825 59.8388 39.0825C61.8243 39.0825 63.3918 38.7168 64.5239 37.9853C65.6559 37.2538 66.4223 36.1217 66.8054 34.6065H72.222H72.2046Z" fill="white"/>
<path d="M93.3129 42.8619L84.4131 30.8271L80.2331 34.3452V42.8793H74.8862V19.0012H80.2331V28.8938L92.0067 19.0012H98.4856L88.1925 27.6921L99.4958 42.8793H93.3129V42.8619Z" fill="white"/>
<path d="M20.9995 45.875C17.5336 41.6254 15.792 36.6268 15.792 30.8794C15.792 25.1319 17.5336 20.1159 20.9995 15.8837L26.0678 15.8837C24.4132 18.3046 23.194 20.7081 22.4277 23.0942C21.6788 25.4802 21.313 28.0753 21.313 30.8968C21.313 33.7183 21.6788 36.3133 22.4277 38.6994C23.194 41.0855 24.4132 43.4715 26.0678 45.9099H20.9995V45.875Z" fill="white"/>
<path d="M98.5552 45.875C100.21 43.4541 101.429 41.0506 102.195 38.6646C102.944 36.2785 103.31 33.6834 103.31 30.8619C103.31 28.0405 102.944 25.4454 102.195 23.0593C101.429 20.6733 100.21 18.2872 98.5552 15.8489H103.623C107.089 20.0985 108.831 25.0971 108.831 30.8445C108.831 36.592 107.089 41.6079 103.623 45.8402H98.5552V45.875Z" fill="white"/>
</svg>
