<svg width="123" height="60" viewBox="0 0 123 60" fill="none" xmlns="http://www.w3.org/2000/svg">
<g clip-path="url(#clip0_97_81)">
<path d="M123 0H0V60H123V0Z" fill="black"/>
<path d="M30.6114 32.3538V41.9509H25.2485V18.0724H44.3537V22.454H30.6114V27.9722H43.6494V32.3538H30.6114Z" fill="white"/>
<path d="M64.5303 18.0724H69.8932V31.9177C69.8932 35.4844 68.9258 38.1493 66.9932 39.9104C65.0607 41.6715 62.1162 42.552 58.1619 42.552C54.2077 42.552 51.2632 41.6715 49.3306 39.9104C47.398 38.1493 46.4307 35.4844 46.4307 31.9177V18.0724H51.7935V32.2183C51.7935 34.2694 52.3069 35.7744 53.3358 36.7332C54.3625 37.6921 55.9727 38.1705 58.1619 38.1705C60.3512 38.1705 61.9613 37.6921 62.9881 36.7332C64.0148 35.7744 64.5303 34.2694 64.5303 32.2183V18.0724Z" fill="white"/>
<path d="M92.819 41.9509L78.977 25.2628V41.9509H73.8496V18.0724H78.7436L92.5857 34.7605V18.0724H97.7131V41.9509H92.819Z" fill="white"/>
<path d="M20.2549 44.9629C16.7737 40.7211 15.0342 35.7214 15.0342 29.9619C15.0342 24.2023 16.7737 19.2048 20.2549 14.9608H25.3356C23.6767 17.3844 22.4611 19.7869 21.6911 22.1639C20.9444 24.541 20.5689 27.1403 20.5689 29.9619C20.5689 32.7834 20.9422 35.3806 21.6911 37.7598C22.4611 40.1369 23.6767 42.5393 25.3356 44.9629H20.2549Z" fill="white"/>
<path d="M97.7681 44.9629C99.427 42.5393 100.643 40.1369 101.413 37.7598C102.159 35.3827 102.535 32.7834 102.535 29.9619C102.535 27.1403 102.161 24.5431 101.413 22.1639C100.643 19.7869 99.427 17.3844 97.7681 14.9608H102.849C106.33 19.2027 108.07 24.2023 108.07 29.9619C108.07 35.7193 106.33 40.7189 102.849 44.9629H97.7681Z" fill="white"/>
</g>
<defs>
<clipPath id="clip0_97_81">
<rect width="123" height="60" fill="white"/>
</clipPath>
</defs>
</svg>
