<svg width="116" height="61" viewBox="0 0 116 61" fill="none" xmlns="http://www.w3.org/2000/svg">
<path d="M115.078 0.875732L0.48291 0.875732L0.48291 60.8757L115.078 60.8757V0.875732Z" fill="black"/>
<path d="M46.8508 33.9292H40.2657V29.7835H51.8096V40.1476C50.3108 41.2 48.5729 41.9972 46.5638 42.5712C44.5548 43.1452 42.4501 43.4163 40.2497 43.4163C35.7852 43.4163 32.3092 42.3161 29.8059 40.1157C27.3026 37.9153 26.043 34.8699 26.043 30.9634C26.043 28.4282 26.5851 26.2119 27.6693 24.3145C28.7536 22.4171 30.3162 20.9502 32.389 19.8978C34.4458 18.8455 36.8854 18.3193 39.6917 18.3193C42.769 18.3193 45.3042 18.9571 47.3132 20.2326C49.3223 21.5082 50.6616 23.3259 51.3632 25.6857L46.0058 26.3235C45.5434 25.0798 44.778 24.155 43.7097 23.5651C42.6574 22.9751 41.2702 22.6722 39.5481 22.6722C37.0129 22.6722 35.0358 23.3738 33.6486 24.7928C32.2614 26.2119 31.5598 28.2369 31.5598 30.8678C31.5598 33.5624 32.2933 35.6034 33.7602 36.9905C35.2271 38.3777 37.3956 39.0634 40.2497 39.0634C42.9444 39.0634 45.1607 38.6329 46.8668 37.7878V33.9132L46.8508 33.9292Z" fill="white"/>
<path d="M81.5938 30.8837C81.5938 33.403 81.0357 35.6034 79.9355 37.4848C78.8353 39.3663 77.2409 40.8332 75.1521 41.8696C73.0634 42.9061 70.5919 43.4322 67.7059 43.4322C64.9475 43.4322 62.5239 42.9379 60.467 41.9494C58.4102 40.9608 56.7997 39.5258 55.6517 37.6284C54.5037 35.7469 53.9297 33.4987 53.9297 30.8837C53.9297 28.3645 54.4878 26.1641 55.5879 24.2826C56.6881 22.4011 58.2826 20.9342 60.3714 19.8978C62.4601 18.8614 64.9315 18.3352 67.8175 18.3352C70.7035 18.3352 72.9996 18.8295 75.0564 19.8181C77.1133 20.8067 78.7237 22.2417 79.8718 24.1391C81.0198 26.0206 81.5938 28.2688 81.5938 30.8837ZM76.045 30.8837C76.045 28.3007 75.3275 26.2917 73.8765 24.8566C72.4256 23.4375 70.3846 22.72 67.7538 22.72C65.1388 22.72 63.1138 23.4375 61.6629 24.8726C60.2119 26.3076 59.4944 28.3166 59.4944 30.8678C59.4944 33.4508 60.2119 35.4599 61.6629 36.8949C63.1138 38.314 65.1548 39.0315 67.7857 39.0315C70.4165 39.0315 72.4256 38.314 73.8765 36.8789C75.3275 35.4439 76.045 33.4349 76.045 30.8837Z" fill="white"/>
<path d="M84.5113 35.3003L84.1445 18.941H89.5976L89.1671 35.3003H84.5113ZM84.304 42.8262V37.4369H89.3585V42.8262H84.304Z" fill="white"/>
<path d="M20.6846 45.8398C17.2087 41.5985 15.4707 36.5918 15.4707 30.8358C15.4707 25.0797 17.2087 20.0731 20.6846 15.8318H25.7551C24.0968 18.2554 22.885 20.663 22.1197 23.0388C21.3703 25.4146 21.0035 28.0136 21.0035 30.8358C21.0035 33.658 21.3703 36.257 22.1197 38.6327C22.885 41.0085 24.0968 43.4162 25.7551 45.8398H20.6846Z" fill="white"/>
<path d="M89.7734 45.8398C91.4317 43.4163 92.6435 41.0086 93.4088 38.6328C94.1582 36.2571 94.525 33.6581 94.525 30.8359C94.525 28.0136 94.1582 25.4147 93.4088 23.0389C92.6435 20.6631 91.4317 18.2555 89.7734 15.8319H94.8439C98.3198 20.0732 100.058 25.0798 100.058 30.8359C100.058 36.5919 98.3198 41.5986 94.8439 45.8398H89.7734Z" fill="white"/>
</svg>
