<svg width="128" height="60" viewBox="0 0 128 60" fill="none" xmlns="http://www.w3.org/2000/svg">
<g clip-path="url(#clip0_97_72)">
<path d="M128 0H0V60H128V0Z" fill="black"/>
<path d="M43.5779 41.9493V31.9553H30.5426V41.9493H25.1836V18.0688H30.5426V27.3024H43.5779V18.0688H48.9369V41.9493H43.5779Z" fill="white"/>
<path d="M79.2987 30.0181C79.2987 32.5347 78.7555 34.7435 77.6511 36.6264C76.5467 38.5094 74.9535 39.9759 72.8715 41.0078C70.7895 42.0398 68.3091 42.5649 65.4305 42.5649C62.5518 42.5649 60.2525 42.076 58.1886 41.0803C56.1247 40.0845 54.5134 38.6542 53.3728 36.7713C52.2322 34.8884 51.6528 32.6433 51.6528 30.0362C51.6528 27.4291 52.196 25.3108 53.3004 23.4279C54.4047 21.545 55.998 20.0785 58.08 19.0465C60.162 18.0145 62.6424 17.4894 65.521 17.4894C68.3996 17.4894 70.6989 17.9783 72.7629 18.9741C74.8268 19.9698 76.4381 21.4001 77.5787 23.283C78.7193 25.166 79.2987 27.411 79.2987 30.0181ZM73.7405 30.0181C73.7405 27.4291 73.0163 25.4194 71.568 24.0072C70.1196 22.5769 68.0738 21.8709 65.4486 21.8709C62.8234 21.8709 60.8138 22.5951 59.3654 24.0254C57.917 25.4556 57.1929 27.4653 57.1929 30.0362C57.1929 32.6071 57.917 34.6349 59.3654 36.0471C60.8138 37.4774 62.8596 38.1835 65.4848 38.1835C68.11 38.1835 70.1196 37.4593 71.568 36.029C73.0163 34.5987 73.7405 32.589 73.7405 30.0181Z" fill="white"/>
<path d="M88.0974 41.9493V22.5226H78.7373V18.0688H102.817V22.5226H93.4564V41.9493H88.0974Z" fill="white"/>
<path d="M20.2049 44.9547C16.7288 40.7182 14.9907 35.7212 14.9907 29.9638C14.9907 24.2064 16.7288 19.2094 20.2049 14.9728H25.2742C23.6266 17.3989 22.4136 19.7888 21.6351 22.1786C20.8928 24.5504 20.5126 27.1575 20.5126 29.9819C20.5126 32.8063 20.8928 35.3953 21.6351 37.7852C22.3955 40.1569 23.6085 42.5649 25.2742 44.9909H20.2049V44.9547Z" fill="white"/>
<path d="M102.834 44.9547C104.482 42.5287 105.695 40.1388 106.474 37.7489C107.216 35.3772 107.596 32.7701 107.596 29.9457C107.596 27.1213 107.216 24.5323 106.474 22.1424C105.713 19.7707 104.5 17.3627 102.834 14.9366H107.904C111.38 19.1732 113.118 24.1702 113.118 29.9276C113.118 35.685 111.38 40.682 107.904 44.9185H102.834V44.9547Z" fill="white"/>
</g>
<defs>
<clipPath id="clip0_97_72">
<rect width="128" height="60" fill="white"/>
</clipPath>
</defs>
</svg>
