<svg width="144" height="61" viewBox="0 0 144 61" fill="none" xmlns="http://www.w3.org/2000/svg">
<path d="M143.541 0.126648H0.828125V60.1266H143.541V0.126648Z" fill="black"/>
<path d="M44.637 42.0944V32.1015H31.5941V42.0944H26.2393L26.2393 18.2153H31.5941V27.4493H44.637V18.2153L49.9919 18.2153V42.0944H44.637Z" fill="white"/>
<path d="M80.3503 30.1476C80.3503 32.6634 79.8022 34.87 78.6918 36.7534C77.5815 38.6367 75.9933 40.0984 73.9132 41.1385C71.8331 42.1785 69.3454 42.6986 66.4782 42.6986C63.611 42.6986 61.306 42.2066 59.24 41.2088C57.1739 40.2109 55.5717 38.7773 54.4192 36.8939C53.2667 35.0106 52.6904 32.7618 52.6904 30.1617C52.6904 27.5615 53.2386 25.4393 54.3489 23.5559C55.4592 21.6726 57.0474 20.2109 59.1275 19.1708C61.2076 18.1307 63.6953 17.6107 66.5625 17.6107C69.4297 17.6107 71.7347 18.1026 73.8008 19.1005C75.8668 20.0984 77.4691 21.532 78.6216 23.4154C79.7741 25.2987 80.3503 27.5475 80.3503 30.1476ZM74.7987 30.1476C74.7987 27.5615 74.0678 25.5517 72.6202 24.1322C71.1725 22.7126 69.1346 21.9958 66.5063 21.9958C63.8781 21.9958 61.8682 22.7126 60.4206 24.1462C58.9729 25.5798 58.2421 27.5896 58.2421 30.1476C58.2421 32.7056 58.9729 34.7435 60.4206 36.1631C61.8682 37.5967 63.9062 38.2994 66.5344 38.2994C69.1627 38.2994 71.1725 37.5826 72.6202 36.149C74.0678 34.7154 74.7987 32.7056 74.7987 30.1476Z" fill="white"/>
<path d="M104.707 42.0943L99.2541 25.102L93.7727 42.0943H88.1508L80.1958 18.2152H86.0426L91.2288 35.8399L96.8086 18.3557L101.953 18.3557L107.575 35.8821L112.761 18.2292H118.411L110.484 42.1084H104.693L104.707 42.0943Z" fill="white"/>
<path d="M21.039 45.088C17.5675 40.8434 15.8247 35.8399 15.8247 30.0915C15.8247 24.3431 17.5675 19.3396 21.039 15.095L26.1128 15.095C24.4544 17.5124 23.2456 19.9158 22.4726 22.2911C21.7277 24.6663 21.3483 27.2665 21.3483 30.0915C21.3483 32.9165 21.7277 35.5166 22.4726 37.8919C23.2456 40.2672 24.4544 42.6705 26.1128 45.088H21.039Z" fill="white"/>
<path d="M118.27 45.0881C119.928 42.6707 121.137 40.2673 121.91 37.8921C122.655 35.5168 123.035 32.9167 123.035 30.0916C123.035 27.2666 122.655 24.6665 121.91 22.2912C121.137 19.916 119.928 17.5126 118.27 15.0952H123.344C126.815 19.3397 128.558 24.3432 128.558 30.0916C128.558 35.8401 126.815 40.8436 123.344 45.0881H118.27Z" fill="white"/>
</svg>
