<svg width="127" height="61" viewBox="0 0 127 61" fill="none" xmlns="http://www.w3.org/2000/svg">
<path d="M126.86 0.905518L0.447754 0.905518L0.447754 60.9055H126.86L126.86 0.905518Z" fill="black"/>
<path d="M42.3694 18.9988H47.7131V33.6752C47.7131 36.8814 46.81 39.3199 45.0037 40.9757C43.1973 42.6315 40.533 43.4594 37.0107 43.4594C33.669 43.4594 31.0799 42.7219 29.2284 41.2467C27.377 39.7715 26.3383 37.5889 26.0674 34.6988H31.4562C31.682 36.189 32.239 37.3029 33.1421 38.0104C34.0453 38.7178 35.3248 39.0791 36.9655 39.0791C38.817 39.0791 40.1717 38.6426 41.0448 37.7846C41.9179 36.9266 42.3544 35.5869 42.3544 33.7505V18.9687L42.3694 18.9988Z" fill="white"/>
<path d="M77.8486 30.9356C77.8486 33.4494 77.2916 35.6621 76.1928 37.5437C75.0939 39.4253 73.4983 40.8854 71.406 41.9241C69.3137 42.9627 66.845 43.4745 63.97 43.4745C61.2003 43.4745 58.7919 42.9777 56.7296 41.9843C54.6674 40.9908 53.0568 39.5608 51.9128 37.6641C50.7688 35.7826 50.1968 33.5397 50.1968 30.9205C50.1968 28.4067 50.7537 26.194 51.8526 24.3124C52.9514 22.4308 54.547 20.9707 56.6393 19.9321C58.7166 18.8934 61.2003 18.3817 64.0754 18.3817C66.845 18.3817 69.2535 18.8784 71.3157 19.8719C73.3779 20.8653 74.9885 22.2954 76.1326 24.192C77.2766 26.0736 77.8486 28.3164 77.8486 30.9356ZM72.2941 30.9356C72.2941 28.3465 71.5716 26.3445 70.1265 24.9145C68.6815 23.4845 66.6343 22.777 64.0001 22.777C61.396 22.777 59.3639 23.4996 57.9188 24.9296C56.4737 26.3746 55.7512 28.3616 55.7512 30.9356C55.7512 33.5247 56.4737 35.5267 57.9188 36.9567C59.3639 38.3867 61.411 39.0941 64.0452 39.0941C66.6795 39.0941 68.6815 38.3716 70.1265 36.9416C71.5716 35.4966 72.2941 33.5096 72.2941 30.9356Z" fill="white"/>
<path d="M86.1731 42.8724V33.344L76.0728 18.9988H82.0637L88.9127 29.0239L95.8369 18.9988H101.617L91.5168 33.344V42.8724H86.1731Z" fill="white"/>
<path d="M20.6482 45.8679C17.171 41.623 15.4399 36.6255 15.4399 30.8754C15.4399 25.1253 17.171 20.1127 20.6482 15.8829H25.7209C24.0651 18.3064 22.8609 20.7148 22.0782 23.0781C21.3255 25.4564 20.9643 28.0606 20.9643 30.8754C20.9643 33.6903 21.3406 36.2944 22.0782 38.6727C22.8459 41.051 24.0651 43.4444 25.7209 45.8679H20.6482Z" fill="white"/>
<path d="M101.586 45.8679C103.242 43.4444 104.446 41.036 105.229 38.6727C105.982 36.2944 106.343 33.6903 106.343 30.8754C106.343 28.0606 105.967 25.4565 105.229 23.0781C104.461 20.6998 103.242 18.3064 101.586 15.883H106.659C110.136 20.1278 111.867 25.1253 111.867 30.8754C111.867 36.6256 110.136 41.6381 106.659 45.8679H101.586Z" fill="white"/>
</svg>
