<svg width="122" height="61" viewBox="0 0 122 61" fill="none" xmlns="http://www.w3.org/2000/svg">
<path d="M121.091 0.753143L0.773926 0.753143L0.773926 60.7531L121.091 60.7531V0.753143Z" fill="black"/>
<path d="M26.1812 42.6995L26.1812 18.8207H31.538L31.538 38.2515H46.1215L45.4467 42.6995H26.1812Z" fill="white"/>
<path d="M72.9333 30.7601C72.9333 33.2802 72.3825 35.4835 71.2808 37.3702C70.1791 39.2568 68.5817 40.7165 66.5023 41.7493C64.4229 42.7821 61.9441 43.3054 59.066 43.3054C56.1878 43.3054 53.8881 42.8097 51.8224 41.8182C49.7568 40.8267 48.1594 39.3945 47.0026 37.5079C45.8596 35.6212 45.2812 33.3766 45.2812 30.7739C45.2812 28.2538 45.8321 26.0504 46.9338 24.1638C48.0354 22.2772 49.6329 20.8175 51.7123 19.7847C53.7917 18.7518 56.2705 18.2285 59.1486 18.2285C62.0267 18.2285 64.3265 18.7243 66.3921 19.7158C68.4578 20.7073 70.0552 22.1395 71.2119 24.0261C72.3549 25.9127 72.9333 28.1574 72.9333 30.7601ZM67.3698 30.7601C67.3698 28.1712 66.64 26.1744 65.194 24.7422C63.7481 23.31 61.71 22.6077 59.0797 22.6077C56.4495 22.6077 54.4389 23.3238 52.993 24.7697C51.547 26.2019 50.8172 28.2125 50.8172 30.7739C50.8172 33.3628 51.547 35.3734 52.993 36.7918C54.4389 38.224 56.477 38.9263 59.1073 38.9263C61.7375 38.9263 63.7481 38.2102 65.194 36.7642C66.64 35.3321 67.3698 33.3215 67.3698 30.7601Z" fill="white"/>
<path d="M75.6743 42.6995V18.8207H81.0312V38.2515H95.6146L94.9399 42.6995H75.6743Z" fill="white"/>
<path d="M20.9754 45.7153C17.5052 41.4738 15.77 36.475 15.77 30.7187C15.77 24.9625 17.5052 19.9636 20.9754 15.7222H26.0431C24.3906 18.1459 23.1788 20.542 22.4076 22.9244C21.664 25.3067 21.2922 27.8957 21.2922 30.7187C21.2922 33.5418 21.664 36.1445 22.4076 38.5131C23.1788 40.8955 24.3906 43.2916 26.0431 45.7153H20.9754Z" fill="white"/>
<path d="M95.7793 45.7153C97.4318 43.2916 98.6437 40.8955 99.4148 38.5131C100.158 36.1307 100.53 33.5418 100.53 30.7187C100.53 27.8957 100.158 25.293 99.4148 22.9244C98.6437 20.542 97.4318 18.1459 95.7793 15.7222H100.847C104.317 19.9636 106.052 24.9625 106.052 30.7187C106.052 36.475 104.317 41.4738 100.847 45.7153H95.7793Z" fill="white"/>
</svg>
