<svg width="140" height="60" viewBox="0 0 140 60" fill="none" xmlns="http://www.w3.org/2000/svg">
<g clip-path="url(#clip0_97_27)">
<path d="M140 0H0V60H140V0Z" fill="black"/>
<path d="M44.8412 41.9509L30.8048 25.2628V41.9509H25.6055V18.0724H30.5682L44.6046 34.7605V18.0724H49.8039V41.9509H44.8412Z" fill="white"/>
<path d="M54.085 41.9509V18.0724H74.4092V22.454H59.5231V27.4705H73.6971V31.8521H59.5231V37.5714H75.1578L74.478 41.953H54.085V41.9509Z" fill="white"/>
<path d="M100.479 41.9509L94.9396 24.9622L89.3659 41.9509H83.6567L75.5684 18.0724H81.5163L86.7845 35.6982L92.4615 18.2079H97.6952L103.404 35.732L108.673 18.0745H114.416L106.36 41.953H100.481L100.479 41.9509Z" fill="white"/>
<path d="M20.5391 44.9629C17.0091 40.7211 15.2451 35.7214 15.2451 29.9619C15.2451 24.2023 17.0091 19.2048 20.5391 14.9608H25.6912C24.009 17.3844 22.7763 19.7869 21.9955 22.1639C21.2383 24.541 20.8575 27.1403 20.8575 29.9619C20.8575 32.7834 21.2361 35.3806 21.9955 37.7598C22.7763 40.1369 24.009 42.5393 25.6912 44.9629H20.5391Z" fill="white"/>
<path d="M114.199 44.9629C115.881 42.5393 117.114 40.1369 117.894 37.7598C118.652 35.3827 119.032 32.7834 119.032 29.9619C119.032 27.1403 118.654 24.5431 117.894 22.1639C117.114 19.7869 115.881 17.3844 114.199 14.9608H119.351C122.881 19.2027 124.645 24.2023 124.645 29.9619C124.645 35.7193 122.881 40.7189 119.351 44.9629H114.199Z" fill="white"/>
</g>
<defs>
<clipPath id="clip0_97_27">
<rect width="140" height="60" fill="white"/>
</clipPath>
</defs>
</svg>
