<svg width="138" height="60" viewBox="0 0 138 60" fill="none" xmlns="http://www.w3.org/2000/svg">
<g clip-path="url(#clip0_97_36)">
<path d="M138 0H0V60H138V0Z" fill="black"/>
<path d="M52.7543 30.0128C52.7543 32.5317 52.2042 34.7351 51.1062 36.619C50.0082 38.5029 48.4192 39.9634 46.3454 41.0006C44.2696 42.0378 41.7996 42.5564 38.9355 42.5564C36.0715 42.5564 33.7806 42.061 31.7258 41.0683C29.6731 40.0756 28.0736 38.6383 26.9313 36.7545C25.7869 34.8706 25.2158 32.6248 25.2158 30.0149C25.2158 27.405 25.7659 25.2947 26.8639 23.4108C27.9619 21.5269 29.5488 20.0664 31.6247 19.0292C33.7005 17.992 36.1705 17.4734 39.0346 17.4734C41.8986 17.4734 44.1895 17.9709 46.2443 18.9615C48.297 19.9542 49.8965 21.3915 51.0388 23.2753C52.181 25.1592 52.7543 27.405 52.7543 30.0149V30.0128ZM47.2264 30.0128C47.2264 27.4262 46.5056 25.4195 45.062 23.9929C43.6184 22.5662 41.5867 21.8529 38.9692 21.8529C36.3518 21.8529 34.3518 22.5726 32.9081 24.0098C31.4645 25.4471 30.7437 27.4495 30.7437 30.0128C30.7437 32.5761 31.4645 34.606 32.9081 36.0327C34.3518 37.4593 36.3813 38.1727 39.0009 38.1727C41.6205 38.1727 43.6184 37.453 45.062 36.0157C46.5056 34.5785 47.2264 32.5761 47.2264 30.0128Z" fill="white"/>
<path d="M79.6583 41.9509V25.665L72.0672 41.9509H67.9723L60.3791 25.7983V41.9509H55.4834V18.0724H61.6773L70.1346 36.1998L78.5582 18.0724H84.6193V41.9509H79.6583Z" fill="white"/>
<path d="M108.061 33.0544H101.5V28.9078H112.988V39.2754C111.5 40.3231 109.757 41.1317 107.759 41.699C105.762 42.2684 103.665 42.552 101.467 42.552C97.0261 42.552 93.5593 41.4535 91.0619 39.2584C88.5645 37.0634 87.3169 34.0132 87.3169 30.1122C87.3169 27.57 87.8543 25.3517 88.9312 23.4573C90.0081 21.5628 91.5719 20.0917 93.6267 19.0418C95.6794 17.9941 98.1051 17.4691 100.902 17.4691C103.966 17.4691 106.495 18.1041 108.493 19.3763C110.491 20.6463 111.833 22.4645 112.522 24.8268L107.195 25.4618C106.729 24.2129 105.968 23.2943 104.914 22.7016C103.861 22.111 102.478 21.8147 100.769 21.8147C98.2379 21.8147 96.2779 22.5238 94.8912 23.9378C93.5045 25.3538 92.809 27.3774 92.809 30.0085C92.809 32.6395 93.5424 34.7456 95.0071 36.1278C96.4718 37.51 98.6256 38.2022 101.467 38.2022C104.151 38.2022 106.35 37.7789 108.059 36.9322V33.0523L108.061 33.0544Z" fill="white"/>
<path d="M20.1221 44.9629C16.6637 40.7211 14.9355 35.7214 14.9355 29.9619C14.9355 24.2023 16.6637 19.2048 20.1221 14.9608H25.1695C23.5214 17.3844 22.3138 19.7869 21.5488 22.1639C20.807 24.541 20.434 27.1403 20.434 29.9619C20.434 32.7834 20.8049 35.3806 21.5488 37.7598C22.3138 40.1369 23.5214 42.5393 25.1695 44.9629H20.1221Z" fill="white"/>
<path d="M112.934 44.9629C114.582 42.5393 115.789 40.1369 116.554 37.7598C117.296 35.3827 117.669 32.7834 117.669 29.9619C117.669 27.1403 117.298 24.5431 116.554 22.1639C115.789 19.7869 114.582 17.3844 112.934 14.9608H117.981C121.439 19.2027 123.168 24.2023 123.168 29.9619C123.168 35.7193 121.439 40.7189 117.981 44.9629H112.934Z" fill="white"/>
</g>
<defs>
<clipPath id="clip0_97_36">
<rect width="138" height="60" fill="white"/>
</clipPath>
</defs>
</svg>
