<svg width="126" height="61" viewBox="0 0 126 61" fill="none" xmlns="http://www.w3.org/2000/svg">
<path d="M125.755 0.518494H0.0473633V60.5185H125.755V0.518494Z" fill="black"/>
<path d="M25.2349 42.4661V18.5845H36.8391C43.5297 18.5845 46.8682 21.2096 46.8682 26.4463C46.8682 29.1253 46.0067 31.1176 44.297 32.41C42.5739 33.7158 39.9623 34.362 36.4352 34.362H30.512V42.4526H25.2349V42.4661ZM36.4083 30.1888C38.1853 30.1888 39.4911 29.8791 40.3257 29.2733C41.1469 28.6541 41.5642 27.7117 41.5642 26.4194C41.5642 25.1271 41.1604 24.2251 40.3661 23.6462C39.5584 23.0674 38.2661 22.7712 36.4891 22.7712H30.5389V30.1888H36.4218H36.4083Z" fill="white"/>
<path d="M76.1614 30.5252C76.1614 33.0426 75.6095 35.2504 74.5056 37.1351C73.4017 39.0197 71.8132 40.4736 69.7266 41.5102C67.64 42.5468 65.163 43.0583 62.2821 43.0583C59.5224 43.0583 57.0993 42.5602 55.0396 41.564C52.9799 40.5679 51.3779 39.1409 50.2202 37.2562C49.0759 35.3715 48.4971 33.1234 48.4971 30.5118C48.4971 27.9001 49.049 25.7866 50.1529 23.9019C51.2568 22.0173 52.8453 20.5634 54.9319 19.5268C57.0185 18.4902 59.4955 17.9652 62.3764 17.9652C65.2572 17.9652 67.5592 18.4633 69.6189 19.4595C71.6786 20.4557 73.2805 21.8961 74.4383 23.7673C75.5825 25.652 76.1614 27.9001 76.1614 30.5118V30.5252ZM70.6151 30.5252C70.6151 27.9405 69.8881 25.9347 68.4477 24.5077C66.9938 23.0808 64.9611 22.3673 62.3225 22.3673C59.7109 22.3673 57.6916 23.0808 56.2377 24.5212C54.7838 25.9616 54.0703 27.954 54.0703 30.5252C54.0703 33.1099 54.7973 35.1158 56.2377 36.5427C57.6916 37.9697 59.7244 38.6832 62.3629 38.6832C65.0014 38.6832 66.9938 37.9697 68.4477 36.5293C69.9016 35.0888 70.6151 33.0965 70.6151 30.5252Z" fill="white"/>
<path d="M78.9077 42.4661V18.5845H90.5119C97.2025 18.5845 100.541 21.2096 100.541 26.4463C100.541 29.1253 99.6795 31.1176 97.9699 32.41C96.2467 33.7158 93.6351 34.362 90.1081 34.362H84.1848V42.4526H78.9077V42.4661ZM90.0811 30.1888C91.8581 30.1888 93.1639 29.8791 93.9986 29.2733C94.8198 28.6541 95.2371 27.7117 95.2371 26.4194C95.2371 25.1271 94.8332 24.2251 94.039 23.6462C93.2312 23.0674 91.9389 22.7712 90.1619 22.7712H84.2117V30.1888H90.0946H90.0811Z" fill="white"/>
<path d="M20.2542 45.4814C16.781 41.2409 15.0444 36.2331 15.0444 30.4848C15.0444 24.7231 16.781 19.7287 20.2542 15.4882H25.3294C23.6736 17.9113 22.462 20.3075 21.6946 22.6903C20.9542 25.0731 20.5773 27.6712 20.5773 30.4848C20.5773 33.3118 20.9542 35.91 21.6946 38.2793C22.462 40.662 23.6736 43.0583 25.3294 45.4814H20.2542Z" fill="white"/>
<path d="M100.555 45.4814C102.211 43.0583 103.422 40.662 104.189 38.2793C104.93 35.8965 105.307 33.2983 105.307 30.4848C105.307 27.6578 104.93 25.0596 104.189 22.6903C103.422 20.3075 102.211 17.9113 100.555 15.4882H105.63C109.103 19.7287 110.84 24.7365 110.84 30.4848C110.84 36.2465 109.103 41.2409 105.63 45.4814H100.555Z" fill="white"/>
</svg>
