<svg width="125" height="60" viewBox="0 0 125 60" fill="none" xmlns="http://www.w3.org/2000/svg">
<g clip-path="url(#clip0_97_99)">
<path d="M125 0H0V60H125V0Z" fill="black"/>
<path d="M42.3156 41.9509L37.1267 33.0226H30.1758V41.9509H25.0542V18.0724H36.7288C43.3576 18.0724 46.6731 20.5595 46.6731 25.5295C46.6731 27.134 46.3026 28.4717 45.5595 29.5428C44.8164 30.6138 43.6797 31.4499 42.1514 32.0511L48.1382 41.9509H42.3177H42.3156ZM36.3289 28.9078C38.0803 28.9078 39.3728 28.6347 40.2042 28.0886C41.0357 27.5425 41.4504 26.6789 41.4504 25.4978C41.4504 24.3167 41.0568 23.47 40.2695 22.9556C39.4822 22.4434 38.1897 22.1873 36.3941 22.1873H30.1737V28.9099H36.3267L36.3289 28.9078Z" fill="white"/>
<path d="M67.0941 18.0724H72.4156V31.9177C72.4156 35.4844 71.4557 38.1493 69.538 39.9104C67.6203 41.6715 64.6985 42.552 60.7747 42.552C56.8509 42.552 53.9291 41.6715 52.0114 39.9104C50.0937 38.1493 49.1338 35.4844 49.1338 31.9177V18.0724H54.4554V32.2183C54.4554 34.2694 54.9648 35.7744 55.9857 36.7332C57.0046 37.6921 58.6023 38.1705 60.7747 38.1705C62.9471 38.1705 64.5449 37.6921 65.5637 36.7332C66.5826 35.7744 67.0941 34.2694 67.0941 32.2183V18.0724Z" fill="white"/>
<path d="M95.1652 41.9509L81.4297 25.2628V41.9509H76.3418V18.0724H81.1981L94.9336 34.7605V18.0724H100.022V41.9509H95.1652Z" fill="white"/>
<path d="M20.099 44.9629C16.6446 40.7211 14.9185 35.7214 14.9185 29.9619C14.9185 24.2023 16.6446 19.2048 20.099 14.9608H25.1406C23.4944 17.3844 22.2882 19.7869 21.5241 22.1639C20.7831 24.541 20.4105 27.1403 20.4105 29.9619C20.4105 32.7834 20.781 35.3806 21.5241 37.7598C22.2882 40.1369 23.4944 42.5393 25.1406 44.9629H20.099Z" fill="white"/>
<path d="M99.9624 44.9629C101.609 42.5393 102.815 40.1369 103.579 37.7598C104.32 35.3827 104.692 32.7834 104.692 29.9619C104.692 27.1403 104.322 24.5431 103.579 22.1639C102.815 19.7869 101.609 17.3844 99.9624 14.9608H105.004C108.458 19.2027 110.185 24.2023 110.185 29.9619C110.185 35.7193 108.458 40.7189 105.004 44.9629H99.9624Z" fill="white"/>
</g>
<defs>
<clipPath id="clip0_97_99">
<rect width="125" height="60" fill="white"/>
</clipPath>
</defs>
</svg>
