<svg width="132" height="61" viewBox="0 0 132 61" fill="none" xmlns="http://www.w3.org/2000/svg">
<path d="M131.194 0.618469L0.609375 0.618469L0.609375 60.6185L131.194 60.6185V0.618469Z" fill="black"/>
<path d="M43.5096 25.4158C43.0422 24.2749 42.3412 23.4639 41.4065 22.9553C40.4718 22.4467 39.1659 22.1993 37.4889 22.1993C35.592 22.1993 34.1487 22.433 33.1453 22.9003C32.1419 23.3677 31.647 24.055 31.647 24.9347C31.647 25.8144 31.9494 26.4055 32.568 26.8041C33.1865 27.2027 34.2999 27.5326 35.9357 27.7801L40.8566 28.5498C43.7707 29.0172 45.9151 29.8419 47.2759 31.0103C48.6367 32.1787 49.3102 33.7869 49.3102 35.8488C49.3102 38.1718 48.3205 39.9725 46.3549 41.2509C44.3755 42.5292 41.5714 43.1753 37.9151 43.1753C35.2621 43.1753 33.0628 42.8591 31.3034 42.2405C29.5577 41.622 28.2106 40.6735 27.2896 39.3952C26.3687 38.1306 25.8188 36.5086 25.6401 34.543H31.0285C31.2484 36.11 31.9082 37.2509 33.0078 37.9656C34.0937 38.6942 35.7432 39.0515 37.9288 39.0515C39.8944 39.0515 41.3652 38.7904 42.3549 38.268C43.3446 37.7457 43.8395 36.9759 43.8395 35.945C43.8395 35.1203 43.5096 34.4742 42.8498 34.0069C42.19 33.5395 41.1453 33.2096 39.7295 33.0034L35.7157 32.4399C32.458 32 30.08 31.189 28.5817 30.0206C27.0834 28.8522 26.3274 27.2027 26.3274 25.0859C26.3274 23.6564 26.7673 22.4192 27.6608 21.3746C28.5542 20.3299 29.8463 19.5189 31.5508 18.9553C33.2553 18.3917 35.2896 18.1031 37.6539 18.1031C40.9116 18.1031 43.4271 18.6392 45.214 19.7251C47.001 20.811 48.1693 22.5017 48.7192 24.8247L43.537 25.4295L43.5096 25.4158Z" fill="white"/>
<path d="M78.2862 30.6392C78.2862 33.1546 77.7363 35.3539 76.6367 37.2509C75.537 39.134 73.9425 40.5911 71.8532 41.6357C69.7638 42.6667 67.2896 43.189 64.4167 43.189C61.5439 43.189 59.2346 42.6941 57.1728 41.7045C55.1109 40.7148 53.5027 39.2715 52.3618 37.3883C51.2071 35.5051 50.6436 33.2646 50.6436 30.6529C50.6436 28.0412 51.1934 25.9381 52.293 24.0412C53.3927 22.1581 54.9872 20.701 57.0765 19.6564C59.1659 18.6254 61.6401 18.1031 64.513 18.1031C67.3858 18.1031 69.6951 18.5979 71.757 19.5876C73.8188 20.5773 75.4271 22.0206 76.5679 23.9038C77.7226 25.7869 78.2862 28.0275 78.2862 30.6392ZM72.7329 30.6392C72.7329 28.055 72.0044 26.0481 70.5611 24.6185C69.1178 23.189 67.0697 22.4742 64.4442 22.4742C61.8188 22.4742 59.8119 23.189 58.3549 24.6323C56.9116 26.0756 56.1831 28.0687 56.1831 30.6392C56.1831 33.2096 56.9116 35.2302 58.3549 36.6598C59.7982 38.0893 61.8463 38.8041 64.4717 38.8041C67.0972 38.8041 69.104 38.0893 70.5611 36.646C72.0044 35.2027 72.7329 33.2096 72.7329 30.6392Z" fill="white"/>
<path d="M105.984 34.3092C105.599 37.1408 104.335 39.3264 102.149 40.8659C99.9772 42.4054 97.1043 43.1752 93.5305 43.1752C90.85 43.1752 88.5133 42.6804 86.5064 41.7044C84.4995 40.7285 82.9463 39.2852 81.8604 37.3883C80.7744 35.4914 80.2246 33.2371 80.2246 30.6391C80.2246 28.0412 80.7607 25.9793 81.8191 24.0962C82.8775 22.213 84.4171 20.7422 86.4239 19.6838C88.4308 18.6254 90.7951 18.0893 93.5167 18.0893C100.142 18.0893 104.17 20.8247 105.585 26.2817L100.266 26.914C99.7023 25.3333 98.905 24.1924 97.8466 23.5051C96.7882 22.8178 95.3449 22.4742 93.5167 22.4742C91.1249 22.4742 89.2418 23.2027 87.8672 24.646C86.4789 26.0893 85.7916 28.0962 85.7916 30.6391C85.7916 33.1821 86.4789 35.2027 87.8672 36.646C89.2555 38.0893 91.1662 38.8041 93.6267 38.8041C95.6061 38.8041 97.1731 38.4329 98.314 37.7044C99.4549 36.9621 100.211 35.8487 100.582 34.323H105.998L105.984 34.3092Z" fill="white"/>
<path d="M20.8161 45.5807C17.3384 41.3333 15.6064 36.3436 15.6064 30.5841C15.6064 24.8247 17.3384 19.8213 20.8161 15.5876H25.8882C24.2387 18.0068 23.0154 20.4123 22.2456 22.7903C21.5034 25.1683 21.1322 27.7663 21.1322 30.5841C21.1322 33.402 21.5034 36 22.2456 38.378C23.0154 40.756 24.225 43.1615 25.8882 45.5807H20.8161Z" fill="white"/>
<path d="M105.997 45.5806C107.647 43.1614 108.87 40.7559 109.64 38.3779C110.382 35.9999 110.753 33.402 110.753 30.5841C110.753 27.7662 110.382 25.1683 109.64 22.7903C108.87 20.4123 107.66 18.0068 105.997 15.5875H111.069C114.547 19.8349 116.279 24.8246 116.279 30.5841C116.279 36.3435 114.547 41.347 111.069 45.5806H105.997Z" fill="white"/>
</svg>
