<svg width="127" height="60" viewBox="0 0 127 60" fill="none" xmlns="http://www.w3.org/2000/svg">
<g clip-path="url(#clip0_56_42)">
<path d="M127 0H0V60H127V0Z" fill="black"/>
<path d="M34.412 41.9509V22.5196H25.0957V18.0724H49.0519V22.5196H39.7356V41.9509H34.412Z" fill="white"/>
<path d="M69.0489 41.9509V31.9516H56.0726V41.9509H50.749V18.0724H56.0726V27.3033H69.0489V18.0724H74.3725V41.9509H69.0489Z" fill="white"/>
<path d="M96.5982 41.9509L89.3119 32.8216L82.0594 41.9509H76.0703L85.9847 29.5767L76.801 18.0724H83.1902L89.413 26.1328L95.8675 18.0724H101.857L92.7403 29.3438L102.987 41.9509H96.6003H96.5982Z" fill="white"/>
<path d="M20.1068 44.963C16.6511 40.7211 14.9243 35.7214 14.9243 29.9619C14.9243 24.2024 16.6511 19.2048 20.1068 14.9608H25.1504C23.5036 17.3845 22.2969 19.7869 21.5325 22.164C20.7912 24.541 20.4185 27.1403 20.4185 29.9619C20.4185 32.7835 20.7891 35.3807 21.5325 37.7598C22.2969 40.1369 23.5036 42.5393 25.1504 44.963H20.1068Z" fill="white"/>
<path d="M101.686 44.963C103.332 42.5393 104.539 40.1369 105.303 37.7598C106.045 35.3828 106.417 32.7835 106.417 29.9619C106.417 27.1403 106.047 24.5432 105.303 22.164C104.539 19.7869 103.332 17.3845 101.686 14.9608H106.729C110.185 19.2027 111.912 24.2024 111.912 29.9619C111.912 35.7193 110.185 40.719 106.729 44.963H101.686Z" fill="white"/>
</g>
<defs>
<clipPath id="clip0_56_42">
<rect width="127" height="60" fill="white"/>
</clipPath>
</defs>
</svg>
