<svg width="107" height="60" viewBox="0 0 107 60" fill="none" xmlns="http://www.w3.org/2000/svg">
<g clip-path="url(#clip0_81_914)">
<path d="M107 0H0V60H107V0Z" fill="black"/>
<path d="M34.3725 41.9483V22.5259H25.0659V18.0776H49.0008V22.5259H39.6942V41.9483H34.3725Z" fill="white"/>
<path d="M50.6978 41.9483V18.0776H56.0195V41.9483H50.6978Z" fill="white"/>
<path d="M60.21 41.9483V18.0776H71.7532C78.4118 18.0776 81.7282 20.6897 81.7282 25.9397C81.7282 28.6035 80.8798 30.5948 79.1573 31.9138C77.4606 33.2069 74.8383 33.8793 71.3419 33.8793H65.4546V41.9741H60.21V41.9483ZM71.3162 29.6638C73.0901 29.6638 74.3755 29.3535 75.1982 28.7328C76.0209 28.1121 76.4322 27.1552 76.4322 25.8621C76.4322 24.569 76.0466 23.6638 75.2239 23.0948C74.4269 22.5259 73.1415 22.2155 71.3676 22.2155H65.4546V29.6379H71.3162V29.6638Z" fill="white"/>
<path d="M20.0786 44.9483C16.6336 40.7069 14.9111 35.7155 14.9111 29.9483C14.9111 24.181 16.6336 19.1897 20.0786 14.9483H25.1175C23.4722 17.3793 22.2638 19.7845 21.4926 22.1379C20.747 24.5172 20.3871 27.1034 20.3871 29.9224C20.3871 32.7414 20.747 35.3534 21.4926 37.7069C22.2638 40.0862 23.4722 42.4914 25.1175 44.8965H20.0786V44.9483Z" fill="white"/>
<path d="M81.8052 44.9483C83.4505 42.5172 84.6589 40.1121 85.4301 37.7586C86.1757 35.3793 86.5356 32.7931 86.5356 29.9741C86.5356 27.1552 86.1757 24.5431 85.4301 22.1897C84.6589 19.8103 83.4505 17.4052 81.8052 15H86.8441C90.2891 19.2414 92.0116 24.2328 92.0116 30C92.0116 35.7672 90.2891 40.7586 86.8441 45H81.8052V44.9483Z" fill="white"/>
</g>
<defs>
<clipPath id="clip0_81_914">
<rect width="107" height="60" fill="white"/>
</clipPath>
</defs>
</svg>
