<svg width="125" height="61" viewBox="0 0 125 61" fill="none" xmlns="http://www.w3.org/2000/svg">
<path d="M124.262 0.606323L0.333008 0.606323L0.333008 60.6063L124.262 60.6063V0.606323Z" fill="black"/>
<path d="M34.9209 42.5569V23.1338H25.5527V18.6832H49.6324V23.1338H40.2643V42.5569H34.9071H34.9209Z" fill="white"/>
<path d="M69.4683 42.5569L62.1469 33.4222L54.8529 42.5569H48.8364L58.8089 30.1805L49.5782 18.6832H55.993L62.243 26.7464L68.7265 18.6832H74.743L65.5809 29.947L75.8831 42.5569H69.4683Z" fill="white"/>
<path d="M84.4541 42.5569V23.1338H75.0859V18.6833H99.1656V23.1338H89.7975V42.5569H84.4403H84.4541Z" fill="white"/>
<path d="M20.5395 45.5652C17.0643 41.3207 15.3335 36.3207 15.3335 30.5652C15.3335 24.8097 17.0643 19.8097 20.5395 15.5652H25.6082C23.9599 17.9828 22.7373 20.3866 21.9681 22.763C21.2264 25.1394 20.8555 27.7355 20.8555 30.5652C20.8555 33.3949 21.2264 35.991 21.9681 38.3674C22.7373 40.7438 23.9461 43.1476 25.6082 45.5652H20.5395Z" fill="white"/>
<path d="M99.1519 45.5652C100.8 43.1477 102.023 40.7438 102.792 38.3674C103.534 35.9911 103.905 33.3949 103.905 30.5652C103.905 27.7493 103.534 25.1394 102.792 22.763C102.023 20.3867 100.814 17.9828 99.1519 15.5652H104.221C107.696 19.8098 109.427 24.8098 109.427 30.5652C109.427 36.3207 107.696 41.3207 104.221 45.5652H99.1519Z" fill="white"/>
</svg>
