<svg width="137" height="61" viewBox="0 0 137 61" fill="none" xmlns="http://www.w3.org/2000/svg">
<path d="M136.523 0.416626L0.119629 0.416626L0.119629 60.4166L136.523 60.4166V0.416626Z" fill="black"/>
<path d="M49.9873 42.3751L44.5447 25.3883L39.0645 42.3751H33.4524L25.4863 18.4957H31.3432L36.5221 36.1228L42.1153 18.6275H47.2566L52.8686 36.1604L58.0475 18.4957H63.6972L55.7688 42.3751H49.9873Z" fill="white"/>
<path d="M65.5433 42.3751V18.4957H85.5432V22.8836H70.8916V27.893H84.8465V32.281H70.8916V38.006H86.2777L85.5997 42.394H65.5244L65.5433 42.3751Z" fill="white"/>
<path d="M89.0647 42.3752V18.4957H100.665C107.2 18.4957 110.458 20.5484 110.458 24.6539C110.458 27.1209 109.159 28.8158 106.579 29.7386C109.762 30.7932 111.362 32.6765 111.362 35.426C111.362 37.7047 110.496 39.4373 108.763 40.6049C107.031 41.7914 104.507 42.3752 101.193 42.3752H89.0459H89.0647ZM100.703 28.0249C102.285 28.0249 103.453 27.7989 104.187 27.3281C104.922 26.8573 105.298 26.1416 105.298 25.1624C105.298 24.2207 104.922 23.5428 104.168 23.1473C103.415 22.733 102.172 22.5258 100.458 22.5258H94.1306V28.0437H100.722L100.703 28.0249ZM100.835 38.3639C102.681 38.3639 104.036 38.119 104.884 37.6106C105.731 37.1021 106.146 36.2923 106.146 35.1812C106.146 34.0701 105.713 33.2415 104.884 32.7142C104.036 32.1868 102.699 31.9044 100.873 31.9044H94.1118V38.3639H100.835Z" fill="white"/>
<path d="M20.3269 45.3884C16.8618 41.1511 15.1104 36.1417 15.1104 30.379C15.1104 24.6162 16.8429 19.6257 20.3269 15.3695H25.3928C23.7356 17.7989 22.5303 20.1906 21.7582 22.5635C21.0049 24.9364 20.6471 27.5353 20.6471 30.3601C20.6471 33.185 21.0237 35.7839 21.7582 38.1567C22.5303 40.5296 23.7356 42.9402 25.3928 45.3507H20.3269V45.3884Z" fill="white"/>
<path d="M111.437 45.3885C113.094 42.9591 114.3 40.5674 115.072 38.1945C115.825 35.8216 116.183 33.2228 116.183 30.3979C116.183 27.573 115.806 24.9742 115.072 22.6013C114.3 20.2284 113.094 17.8179 111.437 15.4073H116.503C119.968 19.6446 121.719 24.654 121.719 30.4167C121.719 36.1794 119.987 41.17 116.503 45.4262H111.437V45.3885Z" fill="white"/>
</svg>
