<svg width="142" height="61" viewBox="0 0 142 61" fill="none" xmlns="http://www.w3.org/2000/svg">
<path d="M141.859 0.158752L0.825684 0.158752L0.825684 60.1588L141.859 60.1588V0.158752Z" fill="black"/>
<path d="M50.715 42.1275L45.2587 25.1327L39.7731 42.1275H34.1505L26.1909 18.2487H32.0482L37.2307 35.8693L42.8141 18.3758H47.9673L53.5899 35.8987L58.7724 18.239H64.4243L56.4941 42.1177H50.7053L50.715 42.1275Z" fill="white"/>
<path d="M84.6651 42.1279V32.1246H71.6207V42.1279H66.272V18.2491H71.6207V27.4799H84.6651V18.2491H90.0138V42.1279H84.6651Z" fill="white"/>
<path d="M101.112 42.1277V32.5938L91.0112 18.249H96.9956L103.85 28.2816L110.773 18.249H116.562L106.461 32.5938V42.1277H101.112Z" fill="white"/>
<path d="M21.0375 45.1197C17.5662 40.8759 15.8257 35.8791 15.8257 30.1197C15.8257 24.3602 17.5662 19.3635 21.0375 15.1197H26.1125C24.46 17.5447 23.2475 19.9404 22.475 22.3263C21.7318 24.7025 21.3602 27.3035 21.3602 30.1197C21.3602 32.9359 21.7318 35.5369 22.475 37.913C23.2475 40.2892 24.46 42.6947 26.1125 45.1197H21.0375Z" fill="white"/>
<path d="M116.582 45.1198C118.234 42.6948 119.447 40.2991 120.219 37.9132C120.962 35.5371 121.334 32.936 121.334 30.1198C121.334 27.3037 120.962 24.7026 120.219 22.3265C119.447 19.9504 118.234 17.5449 116.582 15.1198H121.657C125.128 19.3636 126.868 24.3604 126.868 30.1198C126.868 35.8793 125.128 40.876 121.657 45.1198H116.582Z" fill="white"/>
</svg>
