<svg width="125" height="60" viewBox="0 0 125 60" fill="none" xmlns="http://www.w3.org/2000/svg">
<g clip-path="url(#clip0_97_90)">
<path d="M125 0H0V60H125V0Z" fill="black"/>
<path d="M50.1907 41.9509L44.7055 24.9622L39.1863 41.9509H33.5328L25.5234 18.0724H31.4133L36.6301 35.6982L42.2516 18.2079H47.4343L53.0877 35.732L58.3045 18.0745H63.992L56.0146 41.953H50.1928L50.1907 41.9509Z" fill="white"/>
<path d="M65.8389 41.9509V18.0724H71.2239V41.9509H65.8389Z" fill="white"/>
<path d="M94.5152 41.9509L80.6159 25.2628V41.9509H75.4673V18.0724H80.3816L94.2809 34.7605V18.0724H99.4295V41.9509H94.5152Z" fill="white"/>
<path d="M20.339 44.9629C16.8434 40.7211 15.0967 35.7214 15.0967 29.9619C15.0967 24.2023 16.8434 19.2048 20.339 14.9608H25.4407C23.775 17.3844 22.5544 19.7869 21.7811 22.1639C21.0313 24.541 20.6543 27.1403 20.6543 29.9619C20.6543 32.7834 21.0292 35.3806 21.7811 37.7598C22.5544 40.1369 23.775 42.5393 25.4407 44.9629H20.339Z" fill="white"/>
<path d="M99.6641 44.9629C101.33 42.5393 102.55 40.1369 103.324 37.7598C104.073 35.3827 104.451 32.7834 104.451 29.9619C104.451 27.1403 104.076 24.5431 103.324 22.1639C102.55 19.7869 101.33 17.3844 99.6641 14.9608H104.766C108.261 19.2027 110.008 24.2023 110.008 29.9619C110.008 35.7193 108.261 40.7189 104.766 44.9629H99.6641Z" fill="white"/>
</g>
<defs>
<clipPath id="clip0_97_90">
<rect width="125" height="60" fill="white"/>
</clipPath>
</defs>
</svg>
