<svg width="155" height="61" viewBox="0 0 155 61" fill="none" xmlns="http://www.w3.org/2000/svg">
<path d="M154.361 0.633606H0V60.6336H154.361V0.633606Z" fill="black"/>
<path d="M49.8891 42.5999L44.4337 25.6168L38.9494 42.5999H33.3301L25.3687 18.7252H31.2193L36.4048 36.3445L41.9855 18.8505H47.1325L52.7518 36.3734L57.9373 18.7155H63.5855L55.6626 42.5902H49.8795L49.8891 42.5999Z" fill="white"/>
<path d="M90.9883 30.6577C90.9883 33.1734 90.4389 35.3806 89.3305 37.2601C88.2317 39.1396 86.6317 40.6047 84.5498 41.6457C82.4679 42.6866 79.9811 43.1975 77.1088 43.1975C74.3426 43.1975 71.9329 42.7059 69.8703 41.7131C67.8076 40.7204 66.2076 39.2842 65.051 37.3951C63.904 35.5155 63.3257 33.2698 63.3257 30.6577C63.3257 28.142 63.8751 25.9348 64.9835 24.0553C66.0823 22.1758 67.6823 20.7107 69.7642 19.6698C71.8462 18.6288 74.3329 18.118 77.2052 18.118C79.9715 18.118 82.3811 18.6192 84.4438 19.6023C86.5064 20.5951 88.1064 22.0312 89.263 23.9204C90.41 25.7999 90.9883 28.0457 90.9883 30.6577ZM85.4365 30.6577C85.4365 28.0746 84.7136 26.0698 83.2582 24.6336C81.8124 23.2071 79.7691 22.4939 77.1377 22.4939C74.5064 22.4939 72.5016 23.2167 71.0558 24.6529C69.61 26.089 68.8775 28.0939 68.8775 30.6577C68.8775 33.2408 69.6004 35.2457 71.0558 36.6722C72.5016 38.0987 74.545 38.8119 77.1763 38.8119C79.7883 38.8119 81.8124 38.089 83.2582 36.6529C84.704 35.2167 85.4365 33.2119 85.4365 30.6481V30.6577Z" fill="white"/>
<path d="M115.325 42.5999L109.869 25.6168L104.385 42.5999H98.7656L90.8042 18.7252H96.6548L101.84 36.3445L107.421 18.8505H112.568L118.187 36.3734L123.373 18.7155H129.021L121.098 42.5902H115.315L115.325 42.5999Z" fill="white"/>
<path d="M20.2117 45.5878C16.7418 41.3469 15.0068 36.3445 15.0068 30.5902C15.0068 24.836 16.7418 19.8336 20.2117 15.5927H25.2815C23.6237 18.0119 22.4189 20.4216 21.6478 22.7927C20.9056 25.1734 20.5297 27.7661 20.5297 30.5902C20.5297 33.4143 20.9056 36.0071 21.6478 38.3878C22.4189 40.7686 23.6333 43.1686 25.2815 45.5878H20.2117Z" fill="white"/>
<path d="M129.08 45.5878C130.737 43.1686 131.942 40.7589 132.713 38.3878C133.455 36.0071 133.831 33.4143 133.831 30.5902C133.831 27.7661 133.455 25.1734 132.713 22.7927C131.942 20.4119 130.728 18.0119 129.08 15.5927H134.149C137.619 19.8336 139.354 24.836 139.354 30.5902C139.354 36.3445 137.619 41.3469 134.149 45.5878H129.08Z" fill="white"/>
</svg>
