<svg width="133" height="60" viewBox="0 0 133 60" fill="none" xmlns="http://www.w3.org/2000/svg">
<g clip-path="url(#clip0_97_63)">
<path d="M133 0H0V60H133V0Z" fill="black"/>
<path d="M49.5993 41.9509L44.1788 24.9622L38.7245 41.9509H33.1377L25.2227 18.0724H31.0432L36.1985 35.6982L41.7537 18.2079H46.8753L52.4622 35.732L57.6175 18.0745H63.238L55.3545 41.953H49.6014L49.5993 41.9509Z" fill="white"/>
<path d="M72.5467 41.9509V22.5196H63.2339V18.0724H87.1811V22.5196H77.8683V41.9509H72.5467Z" fill="white"/>
<path d="M94.199 32.3538V41.9509H88.8774V18.0724H107.836V22.454H94.199V27.9722H107.137V32.3538H94.199Z" fill="white"/>
<path d="M20.099 44.963C16.6446 40.7211 14.9185 35.7214 14.9185 29.9619C14.9185 24.2024 16.6446 19.2048 20.099 14.9608H25.1406C23.4945 17.3845 22.2883 19.7869 21.5241 22.164C20.7832 24.541 20.4106 27.1403 20.4106 29.9619C20.4106 32.7835 20.7811 35.3807 21.5241 37.7598C22.2883 40.1369 23.4945 42.5393 25.1406 44.963H20.099Z" fill="white"/>
<path d="M108.173 44.963C109.819 42.5393 111.025 40.1369 111.789 37.7598C112.53 35.3828 112.903 32.7835 112.903 29.9619C112.903 27.1403 112.532 24.5432 111.789 22.164C111.025 19.7869 109.819 17.3845 108.173 14.9608H113.214C116.669 19.2027 118.395 24.2024 118.395 29.9619C118.395 35.7193 116.669 40.719 113.214 44.963H108.173Z" fill="white"/>
</g>
<defs>
<clipPath id="clip0_97_63">
<rect width="133" height="60" fill="white"/>
</clipPath>
</defs>
</svg>
