<svg width="124" height="61" viewBox="0 0 124 61" fill="none" xmlns="http://www.w3.org/2000/svg">
<path d="M123.059 0.369019L0.743652 0.369019L0.743652 60.369L123.059 60.369V0.369019Z" fill="black"/>
<path d="M36.0774 42.3189V32.7933L25.9731 18.4503H31.9638L38.8146 28.4763L45.7437 18.4503H51.531L41.4267 32.7933V42.3189H36.0774Z" fill="white"/>
<path d="M52.5322 42.3188V18.4345H72.5374V22.8141H57.8815V27.8349H71.8336V32.2145H57.8815V37.9392H73.2726L72.6 42.3188H52.5322Z" fill="white"/>
<path d="M92.2608 25.1603C91.7916 24.0184 91.0877 23.2051 90.1493 22.7046C89.2108 22.2041 87.9125 21.9538 86.2389 21.9538C84.3463 21.9538 82.8917 22.1884 81.8907 22.6577C80.8896 23.1269 80.3891 23.7995 80.3891 24.691C80.3891 25.5826 80.7019 26.1613 81.3119 26.568C81.9219 26.9746 83.0481 27.2875 84.6748 27.5377L89.5862 28.3042C92.5111 28.7734 94.6539 29.5867 96.0147 30.7598C97.3755 31.9329 98.0481 33.544 98.0481 35.593C98.0481 37.9079 97.0627 39.7067 95.0919 40.9892C93.1211 42.2718 90.3057 42.9131 86.6456 42.9131C83.9866 42.9131 81.7968 42.6003 80.045 41.9746C78.2932 41.349 76.9636 40.4105 76.0252 39.1279C75.1023 37.861 74.5549 36.2343 74.3672 34.2791H79.7478C79.9668 35.8433 80.6237 36.9851 81.7186 37.7046C82.8135 38.4241 84.4558 38.7838 86.63 38.7838C88.5851 38.7838 90.071 38.5179 91.0565 38.0018C92.0419 37.4856 92.5424 36.7035 92.5424 35.6712C92.5424 34.8422 92.2139 34.2009 91.557 33.7317C90.9 33.2624 89.8521 32.934 88.4287 32.7306L84.4089 32.1676C81.1555 31.7296 78.778 30.9163 77.2765 29.7432C75.7749 28.5701 75.0241 26.9277 75.0241 24.8162C75.0241 23.3928 75.4621 22.1571 76.3693 21.1092C77.2608 20.0612 78.5591 19.2479 80.264 18.6848C81.9689 18.1217 84.0022 17.8245 86.3641 17.8245C89.6175 17.8245 92.1357 18.3719 93.9188 19.4512C95.7019 20.5304 96.875 22.2353 97.4381 24.5502L92.2608 25.1446V25.1603Z" fill="white"/>
<path d="M20.9517 45.3379C17.4793 41.0991 15.7432 36.0939 15.7432 30.3379C15.7432 24.5819 17.4793 19.5767 20.9517 15.3379H26.0195C24.3615 17.7623 23.1571 20.1711 22.3907 22.5485C21.6399 24.926 21.2645 27.5225 21.2645 30.3535C21.2645 33.1846 21.6399 35.7811 22.3907 38.1585C23.1571 40.536 24.3772 42.9448 26.0195 45.3692H20.9517V45.3379Z" fill="white"/>
<path d="M98.0796 45.3378C99.7376 42.9134 100.942 40.5046 101.708 38.1271C102.459 35.7497 102.835 33.1532 102.835 30.3221C102.835 27.5067 102.459 24.8946 101.708 22.5171C100.942 20.1396 99.7219 17.7309 98.0796 15.3065H103.147C106.62 19.5453 108.356 24.5505 108.356 30.3065C108.356 36.0625 106.62 41.0677 103.147 45.3065H98.0796V45.3378Z" fill="white"/>
</svg>
