<?xml version="1.0" encoding="UTF-8"?>
<svg id="Vrstva_1" data-name="Vrstva 1" xmlns="http://www.w3.org/2000/svg" viewBox="0 0 708.66 708.66">
  <defs>
    <style>
      .cls-1 {
        fill: #5bffc4;
      }
    </style>
  </defs>
  <rect width="708.66" height="708.66"/>
  <g>
    <path class="cls-1" d="M528.34,405.94c-6.36,0-11-1.41-13.93-4.22-2.92-2.96-4.41-7.51-4.41-13.61v-60.29h32.59v-26.04h-32.59v-26.28h-34.58v26.28h-23.44v26.04h23.44v61.47c0,15.16,3.48,26.28,10.44,33.31,6.96,6.9,18.1,10.32,33.42,10.32,8.03,0,15.74-.84,23.3-2.39v-26.23c-4.83,1.08-9.56,1.64-14.25,1.64Z"/>
    <path class="cls-1" d="M407.88,433.16v-77.18c0-9.06-2.18-15.62-6.5-19.71-4.18-4.08-10.91-6.1-20.19-6.1-4.97,0-9.89.94-14.85,2.82-4.78,1.88-8.96,4.55-12.53,7.98-6.5,6.24-9.75,13.28-9.75,21.11v71.08h-34.58v-130.67h33.89v23.46c13-15.62,29.71-23.46,50.13-23.46,15.78,0,27.85,4.08,36.21,12.2,8.49,7.98,12.77,19.47,12.77,34.49v83.99h-34.58Z"/>
    <path class="cls-1" d="M251.19,373.14l-29.01.7c-12.53.33-21.72,1.97-27.62,4.93-5.71,2.82-8.59,7.13-8.59,12.9,0,5.02,2.09,8.82,6.27,11.5,4.32,2.67,10.54,3.99,18.57,3.99,6.5,0,12.44-.8,17.87-2.35,5.43-1.74,9.98-4.13,13.69-7.27,5.9-4.69,8.82-10.65,8.82-17.83v-6.57ZM252.35,432.73v-21.11c-7.1,6.9-14.76,11.96-22.98,15.25-8.03,3.14-17.31,4.69-27.85,4.69-15.92,0-28.18-3.19-36.67-9.62-8.49-6.57-12.77-15.86-12.77-27.92,0-13.47,5.57-23.46,16.71-30.03,11.14-6.57,28.69-10.18,52.69-10.79l29.71-.7v-4.69c0-6.9-2.46-12.11-7.43-15.72-4.97-3.75-11.98-5.63-21.12-5.63-17.5,0-27.94,5.02-31.33,15.01l-31.33-3.05c2.46-12.34,8.96-21.49,19.5-27.45,10.68-5.96,25.44-8.91,44.33-8.91,40.39,0,60.58,16.09,60.58,48.33v82.35h-32.03Z"/>
    <path class="cls-1" d="M612.82,301.78c16.62,18.86,24.97,40.77,24.97,65.69s-8.31,46.83-24.97,65.69h-30.73c7.61-10.6,13.18-21.26,16.76-31.86,3.53-10.51,5.29-21.77,5.29-33.83s-1.76-23.37-5.29-33.97c-3.53-10.51-9.14-21.07-16.76-31.72h30.73Z"/>
    <path class="cls-1" d="M95.84,301.78c-16.66,18.86-24.97,40.77-24.97,65.69s8.31,46.83,24.97,65.69h30.73c-7.61-10.6-13.18-21.26-16.76-31.86-3.53-10.51-5.29-21.77-5.29-33.83s1.76-23.37,5.29-33.97c3.53-10.51,9.14-21.07,16.76-31.72h-30.73Z"/>
  </g>
</svg>